<svg id="visual" viewBox="0 0 900 600" width="900" height="600" xmlns="http://www.w3.org/2000/svg" xmlns:xlink="http://www.w3.org/1999/xlink" version="1.1"><path d="M0 60L39 60L39 228L78 228L78 496L117 496L117 284L157 284L157 517L196 517L196 223L235 223L235 64L274 64L274 409L313 409L313 479L352 479L352 81L391 81L391 341L430 341L430 80L470 80L470 159L509 159L509 271L548 271L548 132L587 132L587 423L626 423L626 502L665 502L665 398L704 398L704 240L743 240L743 205L783 205L783 301L822 301L822 108L861 108L861 195L900 195L900 218L900 601L900 601L861 601L861 601L822 601L822 601L783 601L783 601L743 601L743 601L704 601L704 601L665 601L665 601L626 601L626 601L587 601L587 601L548 601L548 601L509 601L509 601L470 601L470 601L430 601L430 601L391 601L391 601L352 601L352 601L313 601L313 601L274 601L274 601L235 601L235 601L196 601L196 601L157 601L157 601L117 601L117 601L78 601L78 601L39 601L39 601L0 601Z" fill="#d07e44"></path></svg>